<svg width="24" height="24" viewBox="0 0 24 24" fill="none" xmlns="http://www.w3.org/2000/svg">
<path d="M20.1 7.95L16.5 9.75M16.5 9.75L16.05 9.975L12 12M16.5 9.75V12.9M16.5 9.75L7.95 5.25M12 12L3.9 7.95M12 12V20.55M15.2202 4.2438L17.0202 5.1888C18.9561 6.2049 19.9245 6.7125 20.4627 7.626C21 8.5386 21 9.6753 21 11.9478V12.0531C21 14.3247 21 15.4614 20.4627 16.374C19.9245 17.2875 18.9561 17.796 17.0202 18.8121L15.2202 19.7562C13.6398 20.5851 12.8496 21 12 21C11.1504 21 10.3602 20.586 8.7798 19.7562L6.9798 18.8112C5.0439 17.7951 4.0755 17.2875 3.5373 16.374C3 15.4614 3 14.3247 3 12.054V11.9487C3 9.6762 3 8.5395 3.5373 7.6269C4.0755 6.7134 5.0439 6.2049 6.9798 5.1897L8.7798 4.2447C10.3602 3.4149 11.1504 3 12 3C12.8496 3 13.6398 3.414 15.2202 4.2438Z" stroke="black" stroke-width="1.5" stroke-linecap="round"/>
</svg>
