<svg xmlns="http://www.w3.org/2000/svg" width="20" height="20" viewBox="0 0 20 20" fill="none">
  <path d="M15.1923 12.5H15.9615C16.3696 12.5 16.7609 12.3379 17.0494 12.0494C17.3379 11.7609 17.5 11.3696 17.5 10.9615V4.03846C17.5 3.63044 17.3379 3.23912 17.0494 2.9506C16.7609 2.66209 16.3696 2.5 15.9615 2.5H9.03846C8.63044 2.5 8.23912 2.66209 7.95061 2.9506C7.66209 3.23912 7.5 3.63044 7.5 4.03846V4.80769" stroke="#3B82F6" stroke-width="1.5" stroke-linecap="round" stroke-linejoin="round"/>
  <path d="M12.5 9.16667C12.5 8.24619 11.7538 7.5 10.8333 7.5H4.16667C3.24619 7.5 2.5 8.24619 2.5 9.16667V15.8333C2.5 16.7538 3.24619 17.5 4.16667 17.5H10.8333C11.7538 17.5 12.5 16.7538 12.5 15.8333V9.16667Z" stroke="#3B82F6" stroke-width="1.5" stroke-linecap="round" stroke-linejoin="round"/>
</svg>


