<svg width="32" height="32" viewBox="0 0 32 32" fill="none" xmlns="http://www.w3.org/2000/svg">
<path d="M10.6666 21.3333V21.3467M10.6666 16V16.0133M10.6666 10.6667V10.68M21.3333 21.3333V21.3467M21.3333 16V16.0133M21.3333 10.6667V10.68M16 10.6667V10.68M16 21.3333V21.3467M5.33331 7.99999C5.33331 7.29275 5.61426 6.61447 6.11436 6.11438C6.61446 5.61428 7.29274 5.33333 7.99998 5.33333H24C24.7072 5.33333 25.3855 5.61428 25.8856 6.11438C26.3857 6.61447 26.6666 7.29275 26.6666 7.99999V24C26.6666 24.7072 26.3857 25.3855 25.8856 25.8856C25.3855 26.3857 24.7072 26.6667 24 26.6667H7.99998C7.29274 26.6667 6.61446 26.3857 6.11436 25.8856C5.61426 25.3855 5.33331 24.7072 5.33331 24V7.99999Z" stroke="#212121" stroke-width="2" stroke-linecap="round" stroke-linejoin="round"/>
</svg>
