<svg width="24" height="24" viewBox="0 0 24 24" fill="none" xmlns="http://www.w3.org/2000/svg">
<path d="M12.0001 3C14.6032 3 16.1084 3.10971 16.9599 3.21857C17.6534 3.30643 18.2139 3.72386 18.5932 4.311C19.0852 5.07129 19.7941 6.23657 20.3696 7.45586C20.8411 8.45529 20.9996 9.56357 20.9996 10.6689L21.0001 14.7857C21.0001 16.4421 20.9131 17.8106 20.8179 18.8143C20.7095 19.9517 19.7902 20.7939 18.6494 20.8517C17.2265 20.9237 15.0121 21 12.0001 21C8.98808 21 6.77365 20.9237 5.35079 20.8517C4.20993 20.7934 3.29022 19.9517 3.18222 18.8143C3.05832 17.475 2.99754 16.1307 3.00008 14.7857V10.6689C3.00008 9.56314 3.15865 8.45529 3.6305 7.45586C4.20608 6.23657 4.91493 5.07129 5.40693 4.311C5.78622 3.72386 6.34679 3.30643 7.03979 3.21814C7.89222 3.10971 9.39736 3 12.0001 3Z" stroke="black" stroke-width="1.5" stroke-linecap="round" stroke-linejoin="round"/>
<path d="M12.0001 8.14286C15.0554 8.14286 17.2908 8.22986 18.7111 8.31129C19.8224 8.37471 20.713 9.18857 20.818 10.2969C20.9131 11.3061 21.0001 12.7303 21.0001 14.5714C21.0001 16.4126 20.9131 17.8367 20.818 18.846C20.713 19.9543 19.8224 20.7681 18.7111 20.8316C17.2908 20.913 15.0554 21 12.0001 21C8.94484 21 6.70941 20.913 5.28912 20.8316C4.17784 20.7681 3.28726 19.9543 3.18226 18.846C3.08712 17.8367 3.00012 16.4126 3.00012 14.5714C3.00012 12.7303 3.08712 11.3061 3.18226 10.2969C3.28726 9.18857 4.17784 8.37471 5.28912 8.31129C6.70941 8.22986 8.94484 8.14286 12.0001 8.14286ZM12.0001 8.14286V3" stroke="black" stroke-width="1.5" stroke-linecap="round" stroke-linejoin="round"/>
<path d="M8.89032 14.004C8.47418 14.5354 8.76347 15.1723 9.43761 15.2117C9.80734 15.2326 10.1774 15.2475 10.5476 15.2563C10.5793 16.0406 10.62 16.8291 10.6496 17.3683C10.6723 17.7883 10.9432 18.156 11.3589 18.2211C11.5462 18.2499 11.7639 18.2713 12.0005 18.2713C12.237 18.2713 12.4548 18.2499 12.6425 18.2207C13.0586 18.1564 13.3299 17.7878 13.3526 17.3674C13.3818 16.8278 13.422 16.0406 13.4533 15.2563C13.8233 15.2476 14.193 15.2327 14.5625 15.2117C15.237 15.1723 15.5268 14.5354 15.1102 14.004C14.7868 13.5936 14.4514 13.1929 14.1043 12.8023C13.4448 12.0553 12.9403 11.6096 12.5906 11.3469C12.2306 11.076 11.7703 11.076 11.4099 11.3469C11.0606 11.6096 10.5562 12.0557 9.89661 12.8023C9.54944 13.1929 9.21386 13.5936 8.89032 14.004Z" stroke="black" stroke-width="1.5" stroke-linecap="round" stroke-linejoin="round"/>
</svg>
